<svg id="Слой_1" width="100%" height="100%" data-name="Слой 1" xmlns="http://www.w3.org/2000/svg" viewBox="0 0 316.89 44"><defs><style>.cls-1{fill:#e52020;}.cls-2{fill:#fff;}.cls-3{fill:#202528;}</style></defs><title>logo</title><path class="cls-1" d="M319.19,7H247.78a7.66,7.66,0,0,0-7.29,6.29l-5,31.42a5.24,5.24,0,0,0,5.3,6.29h71.41a7.66,7.66,0,0,0,7.29-6.29l5-31.42A5.24,5.24,0,0,0,319.19,7Z" transform="translate(-7.68 -7)"/><path class="cls-2" d="M267.56,41.13a.68.68,0,0,1-.45.18h-4.06a.54.54,0,0,1-.42-.18.45.45,0,0,1-.11-.44l1.58-9h-7.66l-1.58,9a.91.91,0,0,1-.26.44.66.66,0,0,1-.45.18h-4.06a.54.54,0,0,1-.42-.18.47.47,0,0,1-.11-.44l3.85-21.82a.73.73,0,0,1,.27-.42.72.72,0,0,1,.47-.17h4.06c.39,0,.56.19.5.59l-1.46,8.24h7.66l1.45-8.24a.81.81,0,0,1,.28-.42.72.72,0,0,1,.47-.17h4.06c.39,0,.56.19.5.59l-3.85,21.82A.91.91,0,0,1,267.56,41.13Z" transform="translate(-7.68 -7)"/><path class="cls-2" d="M287,29.78a7.67,7.67,0,0,1-.05.82c0,.28-.07.56-.11.85l-.31,1.8c-.1.5-.36.74-.77.74h-9.95a5.43,5.43,0,0,0-.1.67c0,.22,0,.42,0,.61a2,2,0,0,0,.64,1.69,3.58,3.58,0,0,0,2.12.48c.5,0,1,0,1.6,0l1.67-.06c.55,0,1.07,0,1.55-.08s.88-.06,1.2-.1h.09c.33,0,.49.13.49.4v.09L284.56,40a1.34,1.34,0,0,1-.2.56,1,1,0,0,1-.57.28,29.45,29.45,0,0,1-3,.55,27,27,0,0,1-3.48.19,7.93,7.93,0,0,1-2.44-.37,6.36,6.36,0,0,1-2.08-1.13,5.59,5.59,0,0,1-1.45-1.94,6.67,6.67,0,0,1-.55-2.79,8.21,8.21,0,0,1,.05-.84c0-.29.07-.59.11-.9l.37-2.17a10.1,10.1,0,0,1,3.07-6.1,9.09,9.09,0,0,1,6.2-2.05,7.22,7.22,0,0,1,2.78.5,5.57,5.57,0,0,1,2,1.37,5.66,5.66,0,0,1,1.21,2.07A7.73,7.73,0,0,1,287,29.78Zm-4.68-.25a2.23,2.23,0,0,0-.56-1.64,2.57,2.57,0,0,0-1.86-.56,2.94,2.94,0,0,0-2.4,1,5.82,5.82,0,0,0-1.17,2.58h5.83c0-.24.08-.48.11-.71A5,5,0,0,0,282.27,29.53Z" transform="translate(-7.68 -7)"/><path class="cls-2" d="M297.3,27.52,295,40.66a.77.77,0,0,1-.28.5.82.82,0,0,1-.47.15h-3.75a.64.64,0,0,1-.42-.15.51.51,0,0,1-.1-.5l2.32-13.14h-3.87a.53.53,0,0,1-.47-.19.63.63,0,0,1-.09-.43l.49-2.7a1,1,0,0,1,.25-.45.66.66,0,0,1,.53-.2h12.74a.48.48,0,0,1,.46.2.54.54,0,0,1,.07.45l-.5,2.7a.69.69,0,0,1-.22.43.72.72,0,0,1-.52.19Z" transform="translate(-7.68 -7)"/><path class="cls-3" d="M36.48,16.06a.22.22,0,0,1,0,.12.53.53,0,0,0,0,.13L32,41.29a.58.58,0,0,1-.27.4.88.88,0,0,1-.42.11H26.58c-.29,0-.43-.19-.43-.58v-.14l2.63-15V26q0-.18-.15-.18c-.07,0-.18.08-.32.25L24,32a1.44,1.44,0,0,1-1.19.61H20A.94.94,0,0,1,19,32L16.79,26c-.07-.17-.16-.25-.25-.25s-.19.1-.22.29l-2.63,15a1,1,0,0,1-.27.5.58.58,0,0,1-.45.22H8.22a.8.8,0,0,1-.36-.09.32.32,0,0,1-.18-.31v-.11l4.43-25a1.38,1.38,0,0,1,.52-.89,1.55,1.55,0,0,1,1-.33h3.13a1.34,1.34,0,0,1,.9.27,1.74,1.74,0,0,1,.51.7l3.71,10.26c.12.31.22.47.32.47a.26.26,0,0,0,.2-.12c.06-.09.15-.2.27-.35L30,16a2.08,2.08,0,0,1,1.76-1h3.64C36.11,15.05,36.48,15.39,36.48,16.06Z" transform="translate(-7.68 -7)"/><path class="cls-3" d="M54.34,28.15c0,.34,0,.72-.07,1.14a9.17,9.17,0,0,1-.15.95l-.47,2.52a12.51,12.51,0,0,1-3.36,7Q47.79,42.12,43,42.12a8.53,8.53,0,0,1-3.24-.56A6.87,6.87,0,0,1,37.38,40a6.19,6.19,0,0,1-1.46-2.32,8.7,8.7,0,0,1-.48-2.93c0-.34,0-.67,0-1a8.79,8.79,0,0,1,.15-1l.47-2.52q.9-4.89,3.52-7.13a10.7,10.7,0,0,1,7.13-2.23,7.6,7.6,0,0,1,5.64,2A7.23,7.23,0,0,1,54.34,28.15Zm-5.83.44c0-1.83-.88-2.74-2.63-2.74a3.47,3.47,0,0,0-2.58,1,6.46,6.46,0,0,0-1.42,3.38l-.47,2.52c0,.34-.09.65-.12.92a5.73,5.73,0,0,0-.06.81,2.8,2.8,0,0,0,.65,2,2.75,2.75,0,0,0,2,.65,3.2,3.2,0,0,0,2.66-1.12,7.35,7.35,0,0,0,1.3-3.31l.47-2.52A10.9,10.9,0,0,0,48.51,28.59Z" transform="translate(-7.68 -7)"/><path class="cls-3" d="M66.25,21.53c-.62.12-1.21.26-1.76.41a4.78,4.78,0,0,0-1.44.67,6.86,6.86,0,0,1,1.53-.32c.49-.05.87-.08,1.13-.08a8.9,8.9,0,0,1,3.28.56,6.69,6.69,0,0,1,2.36,1.55,6.31,6.31,0,0,1,1.42,2.39,9.72,9.72,0,0,1,.47,3.06A13.18,13.18,0,0,1,73,32.15l-.22,1.19a10.68,10.68,0,0,1-3.36,6.55,10.75,10.75,0,0,1-7.22,2.23,9.13,9.13,0,0,1-3.42-.57A6.39,6.39,0,0,1,56.48,40a6,6,0,0,1-1.33-2.39,10.38,10.38,0,0,1-.42-3A16,16,0,0,1,55,31.79l.22-1.19c.31-1.7.65-3.28,1-4.73A13.75,13.75,0,0,1,57.83,22a9.72,9.72,0,0,1,2.73-2.88A11.6,11.6,0,0,1,65,17.39l1.9-.4a11.32,11.32,0,0,0,1.54-.37,5.3,5.3,0,0,0,1-.42,1.66,1.66,0,0,0,.84-1,.56.56,0,0,1,.61-.46h4.33a.51.51,0,0,1,.3.09c.08.06.1.18,0,.37a9.18,9.18,0,0,1-.77,2.07,6,6,0,0,1-1.28,1.66,7.22,7.22,0,0,1-1.94,1.26,13,13,0,0,1-2.77.85Zm1,10A10,10,0,0,0,67.44,30a2.84,2.84,0,0,0-.67-2.14,2.68,2.68,0,0,0-1.92-.63,3.53,3.53,0,0,0-2.59,1,6.13,6.13,0,0,0-1.41,3.4l-.21,1.19a9.84,9.84,0,0,0-.18,1.66,2.35,2.35,0,0,0,2.62,2.77,3.43,3.43,0,0,0,2.58-1,6.62,6.62,0,0,0,1.42-3.41Z" transform="translate(-7.68 -7)"/><path class="cls-3" d="M73.78,41.8a.88.88,0,0,1-.51-.16.59.59,0,0,1-.14-.6l3.38-19.11a.82.82,0,0,1,.87-.76h3.88a.69.69,0,0,1,.49.18.62.62,0,0,1,.13.58l-1.73,9.72c0,.16,0,.25.11.25s.16-.07.28-.22L88.25,22a3.54,3.54,0,0,1,.67-.64,1.17,1.17,0,0,1,.73-.22h4c.26,0,.44.07.52.22a.65.65,0,0,1,0,.5L90.84,41a.87.87,0,0,1-.32.6,1.06,1.06,0,0,1-.54.16H86.09a.56.56,0,0,1-.54-.24.62.62,0,0,1-.07-.52l1.65-9.25c0-.14,0-.22-.11-.22a.42.42,0,0,0-.32.22l-7.38,9.14a2.2,2.2,0,0,1-.83.72,2.1,2.1,0,0,1-.82.15Z" transform="translate(-7.68 -7)"/><path class="cls-3" d="M104.27,26c0-.14,0-.22-.11-.22s-.13.08-.18.22L97.9,41a2,2,0,0,1-.38.55,1,1,0,0,1-.74.24H92.57a.72.72,0,0,1-.69-.34.8.8,0,0,1,0-.74l7.2-16.63a5.17,5.17,0,0,1,1.1-1.66,5.79,5.79,0,0,1,1.46-1,6.06,6.06,0,0,1,1.62-.5,11.28,11.28,0,0,1,1.62-.13,10.42,10.42,0,0,1,1.58.13,4.69,4.69,0,0,1,1.44.47,2.82,2.82,0,0,1,1.07,1,4,4,0,0,1,.52,1.73l1.4,16.7a1.37,1.37,0,0,1,0,.76c-.09.16-.3.25-.63.25H106a.81.81,0,0,1-.68-.24.87.87,0,0,1-.18-.55Z" transform="translate(-7.68 -7)"/><path class="cls-3" d="M112.44,41.8a.85.85,0,0,1-.5-.16q-.22-.16-.15-.6l3.39-19.11a.81.81,0,0,1,.86-.76h3.89a.68.68,0,0,1,.48.18.57.57,0,0,1,.13.58l-1.73,9.72c0,.16,0,.25.11.25s.17-.07.29-.22l7.7-9.65a3.86,3.86,0,0,1,.67-.64,1.2,1.2,0,0,1,.74-.22h4c.27,0,.44.07.52.22a.61.61,0,0,1,.06.5L129.51,41a.84.84,0,0,1-.33.6,1.06,1.06,0,0,1-.54.16h-3.89a.59.59,0,0,1-.54-.24.66.66,0,0,1-.07-.52l1.66-9.25c0-.14,0-.22-.11-.22a.4.4,0,0,0-.32.22L118,40.93a2.18,2.18,0,0,1-.82.72,2.16,2.16,0,0,1-.83.15Z" transform="translate(-7.68 -7)"/><path class="cls-3" d="M135.12,33.3a.6.6,0,0,1-.56-.23.71.71,0,0,1-.05-.52l.47-2.67a1.24,1.24,0,0,1,.25-.5.73.73,0,0,1,.61-.22H141c1.65,0,2.48-.86,2.48-2.59a1.06,1.06,0,0,0-.54-1,3.81,3.81,0,0,0-1.76-.31l-1.25,0-1.49,0c-.53,0-1.07,0-1.62.07l-1.58.13a.76.76,0,0,1-.49-.08c-.13-.07-.17-.24-.13-.5l.47-2.7a.82.82,0,0,1,.68-.61A30.83,30.83,0,0,1,139,21a23.81,23.81,0,0,1,3.46-.26,10.65,10.65,0,0,1,5.11,1,3.65,3.65,0,0,1,1.84,3.47,7.47,7.47,0,0,1-.79,3.39,5.9,5.9,0,0,1-2.5,2.52,2.82,2.82,0,0,1,1.29,1.33,4.41,4.41,0,0,1,.43,1.94,4,4,0,0,1-.07.71c-.05.27-.09.54-.14.81a7.38,7.38,0,0,1-1.12,2.8,6.79,6.79,0,0,1-1.95,1.9,8.27,8.27,0,0,1-2.69,1.06,16.42,16.42,0,0,1-3.3.32,23.56,23.56,0,0,1-3.31-.23,20.62,20.62,0,0,1-2.88-.63c-.24-.08-.39-.16-.43-.26a.58.58,0,0,1,0-.36l.5-2.69a.66.66,0,0,1,.28-.51,1,1,0,0,1,.55-.07c.51.05,1,.08,1.55.11l1.59.07,1.47.05,1.22,0a3.51,3.51,0,0,0,2.17-.47,2.41,2.41,0,0,0,.72-1.37c.07-.33.11-.58.14-.75a4,4,0,0,0,0-.43,1.17,1.17,0,0,0-.36-.9,2,2,0,0,0-1.34-.33Z" transform="translate(-7.68 -7)"/><path class="cls-3" d="M164.93,41.08a1,1,0,0,1-.31.5.72.72,0,0,1-.52.22h-4a.8.8,0,0,1-.49-.16.56.56,0,0,1-.12-.56l.1-.58a11.38,11.38,0,0,1-2.43,1.19,8.6,8.6,0,0,1-2.86.43,6.41,6.41,0,0,1-2-.32,5.11,5.11,0,0,1-1.73-1,4.86,4.86,0,0,1-1.22-1.64,5.32,5.32,0,0,1-.47-2.29,8.23,8.23,0,0,1,.22-1.77l.07-.32a7.11,7.11,0,0,1,1.1-2.58,5.18,5.18,0,0,1,2-1.64,9.5,9.5,0,0,1,2.95-.85,29.89,29.89,0,0,1,4-.23h1.94l.22-1.3c0-.15,0-.29,0-.42s0-.26,0-.38a1.4,1.4,0,0,0-.63-1.37,3.86,3.86,0,0,0-1.71-.32h-1.75c-.59,0-1.15,0-1.69.06s-1,0-1.48.09l-1.1.09c-.55.07-.79-.14-.71-.64l.5-2.9a1,1,0,0,1,.83-.79l1.26-.25c.48-.09,1-.18,1.56-.25s1.15-.13,1.75-.18,1.2-.07,1.8-.07a9.66,9.66,0,0,1,5.33,1.28q1.93,1.28,1.94,4.34a11.38,11.38,0,0,1-.21,2.09ZM160.64,33h-2a6.29,6.29,0,0,0-1.56.16,2.85,2.85,0,0,0-1.05.5,2.63,2.63,0,0,0-.65.83,5.26,5.26,0,0,0-.37,1.14l-.08.32c0,.12,0,.23,0,.32s0,.2,0,.29a1,1,0,0,0,.52,1,3.93,3.93,0,0,0,1.5.23,5.73,5.73,0,0,0,1.6-.23,13.88,13.88,0,0,0,1.49-.56Z" transform="translate(-7.68 -7)"/><path class="cls-3" d="M175.15,41.8a10.94,10.94,0,0,1-3.27-.43,5.69,5.69,0,0,1-2.13-1.17,4.15,4.15,0,0,1-1.13-1.77,6.87,6.87,0,0,1-.34-2.21,8,8,0,0,1,.05-1c0-.33.08-.65.13-1l2.16-12.35a1.13,1.13,0,0,1,.25-.5.73.73,0,0,1,.61-.22h4.39c.27,0,.44.07.52.22a.61.61,0,0,1,.06.5l-2.34,13.24A4.58,4.58,0,0,0,174,36a.88.88,0,0,0,.27.68,1.68,1.68,0,0,0,1.1.25h2.88a3,3,0,0,0,.93-.12,1.1,1.1,0,0,0,.54-.38,1.83,1.83,0,0,0,.27-.6c.06-.22.12-.47.17-.74l2.34-13.24a1.13,1.13,0,0,1,.25-.5.73.73,0,0,1,.61-.22h4.39c.27,0,.44.07.52.22a.61.61,0,0,1,.06.5L186.1,34.63c-.08.41-.16.81-.26,1.21a6.78,6.78,0,0,1-.36,1.13h1.66a.62.62,0,0,1,.54.22.57.57,0,0,1,.07.5l-1.37,7.75a1.13,1.13,0,0,1-.25.5.76.76,0,0,1-.61.21h-4.36a.57.57,0,0,1-.52-.21.68.68,0,0,1,0-.51l.65-3.63Z" transform="translate(-7.68 -7)"/><path class="cls-3" d="M188.65,41.8a.85.85,0,0,1-.5-.16c-.15-.11-.19-.31-.15-.6l3.39-19.11a.81.81,0,0,1,.86-.76h3.89a.72.72,0,0,1,.49.18.59.59,0,0,1,.12.58L195,31.65c0,.16,0,.25.1.25s.17-.07.29-.22L203.13,22a3.85,3.85,0,0,1,.66-.64,1.2,1.2,0,0,1,.74-.22h4a.55.55,0,0,1,.52.22.65.65,0,0,1,0,.5L205.72,41a.84.84,0,0,1-.33.6,1.06,1.06,0,0,1-.54.16H201a.56.56,0,0,1-.53-.24.62.62,0,0,1-.08-.52L202,31.79c0-.14,0-.22-.11-.22a.4.4,0,0,0-.32.22l-7.38,9.14a2.27,2.27,0,0,1-.83.72,2.16,2.16,0,0,1-.83.15Z" transform="translate(-7.68 -7)"/><path class="cls-3" d="M208.67,41.8a.91.91,0,0,1-.51-.16A.59.59,0,0,1,208,41l3.38-19.11a.82.82,0,0,1,.87-.76h3.89a.68.68,0,0,1,.48.18.6.6,0,0,1,.13.58L215,31.65c0,.16,0,.25.11.25s.17-.07.29-.22l7.7-9.65a3.54,3.54,0,0,1,.67-.64,1.19,1.19,0,0,1,.73-.22h4c.26,0,.44.07.52.22a.65.65,0,0,1,.06.5L225.73,41a.84.84,0,0,1-.32.6,1.06,1.06,0,0,1-.54.16H221a.59.59,0,0,1-.54-.24.62.62,0,0,1-.07-.52L222,31.79c0-.14,0-.22-.11-.22a.43.43,0,0,0-.33.22l-7.38,9.14a2.13,2.13,0,0,1-.83.72,2.1,2.1,0,0,1-.82.15Z" transform="translate(-7.68 -7)"/><path class="cls-2" d="M309,37.43l-.68,3.9a.86.86,0,0,1-.27.44.64.64,0,0,1-.44.18H304a.44.44,0,0,1-.5-.49v-.13l.68-3.9a.73.73,0,0,1,.27-.42.68.68,0,0,1,.45-.17h3.65c.33,0,.5.15.5.46Zm3.44-18.63-3.35,15.47a.92.92,0,0,1-.28.45.68.68,0,0,1-.46.2h-2.64a.53.53,0,0,1-.4-.17.6.6,0,0,1-.15-.39v-.09l2.1-15.47a.67.67,0,0,1,.28-.44.85.85,0,0,1,.5-.18h3.87c.36,0,.53.16.53.49Z" transform="translate(-7.68 -7)"/></svg>